<?xml version="1.0" encoding="UTF-8"?>
<svg width="20px" height="20px" viewBox="0 0 20 20" version="1.1" xmlns="http://www.w3.org/2000/svg" xmlns:xlink="http://www.w3.org/1999/xlink">
    <title>Shape</title>
    <g id="Page-1" stroke="none" stroke-width="1" fill="none" fill-rule="evenodd">
        <g id="Artboard" transform="translate(-295.000000, -36.000000)" fill="#13B3C5">
            <path d="M305,54 C305.552285,54 306,54.4477153 306,55 C306,55.5522847 305.552285,56 305,56 C304.447715,56 304,55.5522847 304,55 C304,54.4477153 304.447715,54 305,54 Z M299.414214,52.5857864 C299.804738,52.9763107 299.804738,53.6094757 299.414214,54 C299.023689,54.3905243 298.390524,54.3905243 298,54 C297.609476,53.6094757 297.609476,52.9763107 298,52.5857864 C298.390524,52.1952621 299.023689,52.1952621 299.414214,52.5857864 Z M312,52.5857864 C312.390524,52.9763107 312.390524,53.6094757 312,54 C311.609476,54.3905243 310.976311,54.3905243 310.585786,54 C310.195262,53.6094757 310.195262,52.9763107 310.585786,52.5857864 C310.976311,52.1952621 311.609476,52.1952621 312,52.5857864 Z M305,41 C307.761424,41 310,43.2385763 310,46 C310,48.7614237 307.761424,51 305,51 C302.238576,51 300,48.7614237 300,46 C300,43.2385763 302.238576,41 305,41 Z M314,45 C314.552285,45 315,45.4477153 315,46 C315,46.5522847 314.552285,47 314,47 C313.447715,47 313,46.5522847 313,46 C313,45.4477153 313.447715,45 314,45 Z M296,45 C296.552285,45 297,45.4477153 297,46 C297,46.5522847 296.552285,47 296,47 C295.447715,47 295,46.5522847 295,46 C295,45.4477153 295.447715,45 296,45 Z M312,39 C312.390524,39.3905243 312.390524,40.0236893 312,40.4142136 C311.609476,40.8047379 310.976311,40.8047379 310.585786,40.4142136 C310.195262,40.0236893 310.195262,39.3905243 310.585786,39 C310.976311,38.6094757 311.609476,38.6094757 312,39 Z M299.414214,39 C299.804738,39.3905243 299.804738,40.0236893 299.414214,40.4142136 C299.023689,40.8047379 298.390524,40.8047379 298,40.4142136 C297.609476,40.0236893 297.609476,39.3905243 298,39 C298.390524,38.6094757 299.023689,38.6094757 299.414214,39 Z M305,36 C305.552285,36 306,36.4477153 306,37 C306,37.5522847 305.552285,38 305,38 C304.447715,38 304,37.5522847 304,37 C304,36.4477153 304.447715,36 305,36 Z" id="Shape"></path>
        </g>
    </g>
</svg>